<svg width="24" height="24" viewBox="0 0 24 24" fill="none" xmlns="http://www.w3.org/2000/svg">
<path d="M14.6935 13.6319C14.3166 14.2177 13.759 14.6647 13.1051 14.9051C12.4513 15.1454 11.7369 15.1661 11.0703 14.9639C10.4037 14.7618 9.82112 14.3478 9.41095 13.7847C9.00079 13.2217 8.78537 12.5402 8.79735 11.8437C8.80933 11.1472 9.04805 10.4736 9.47733 9.92497C9.90662 9.37635 10.5031 8.98264 11.1762 8.80351C11.8494 8.62438 12.5627 8.6696 13.2078 8.93232C13.853 9.19504 14.395 9.66093 14.7515 10.2594" stroke="white" stroke-width="0.5" stroke-linecap="round" stroke-linejoin="round"/>
<path d="M14.7522 10.26L16.9722 8.93204C16.3102 7.8206 15.3039 6.95529 14.1059 6.46728C12.9078 5.97927 11.5833 5.89517 10.3331 6.22771C9.08289 6.56026 7.97521 7.29133 7.17793 8.3101C6.38065 9.32887 5.93726 10.5798 5.91495 11.8733C5.89264 13.1667 6.29264 14.4322 7.05431 15.4779C7.81598 16.5235 8.89779 17.2923 10.1358 17.6678C11.3737 18.0433 12.7004 18.0049 13.9146 17.5585C15.1288 17.1121 16.1643 16.282 16.8643 15.194L14.6943 13.632" stroke="white" stroke-width="0.5" stroke-linecap="round" stroke-linejoin="round"/>
<path d="M12 1.75L2.95996 6.668V17.076L12 22.25L21.04 17.1125V6.5815L12 1.75Z" stroke="white" stroke-width="0.5" stroke-linecap="round" stroke-linejoin="round"/>
<path d="M17.3061 13.4954V10.5044M18.5811 13.4954V10.5044M16.7236 11.3159H19.1636M16.7236 12.6839H19.1636" stroke="white" stroke-width="0.5" stroke-linecap="round" stroke-linejoin="round"/>
</svg>
