<svg width="16" height="16" viewBox="0 0 16 16" fill="none" xmlns="http://www.w3.org/2000/svg">
<path d="M2.35148 14.2653L1.09473 0.168945H14.9047L13.6467 14.2632L7.99135 15.8311L2.35148 14.2653Z" fill="#1572B6"/>
<path d="M8 14.6325L12.5699 13.3655L13.645 1.32129H8V14.6325Z" fill="#33A9DC"/>
<path d="M8 6.42845H10.2878L10.4458 4.65807H8V2.9292H12.3352L12.2937 3.39307L11.8687 8.15732H8V6.42845Z" fill="white"/>
<path d="M8.01013 10.9185L8.0025 10.9207L6.07713 10.4008L5.954 9.02197H4.21875L4.46088 11.7366L8.00225 12.7195L8.01013 12.7172V10.9185Z" fill="#EBEBEB"/>
<path d="M10.1404 8.08447L9.93216 10.3997L8.00391 10.9202V12.719L11.5482 11.7367L11.5742 11.4446L11.8749 8.08447H10.1404Z" fill="white"/>
<path d="M8.00555 2.9292V4.65807H3.82955L3.79493 4.26957L3.71618 3.39307L3.6748 2.9292H8.00555ZM7.99968 6.4287V8.15757H6.09855L6.06393 7.76907L5.98505 6.89257L5.9438 6.4287H7.99968Z" fill="#EBEBEB"/>
</svg>
