<svg width="16" height="16" viewBox="0 0 16 16" fill="none" xmlns="http://www.w3.org/2000/svg">
<path d="M1 1H15V15H1V1Z" fill="#F5DE19"/>
<path d="M10.404 11.9377C10.5235 12.1798 10.7089 12.3833 10.9389 12.5249C11.1688 12.6664 11.434 12.7401 11.704 12.7377C12.249 12.7377 12.5975 12.4652 12.5975 12.0877C12.5975 11.6377 12.2395 11.4767 11.6395 11.2142L11.3105 11.0732C10.3605 10.6687 9.73055 10.1622 9.73055 9.09117C9.73055 8.10467 10.4805 7.35317 11.657 7.35317C12.0379 7.32574 12.4184 7.411 12.7511 7.59834C13.0838 7.78568 13.354 8.06681 13.528 8.40667L12.4995 9.06417C12.4325 8.89567 12.3158 8.75152 12.165 8.6508C12.0142 8.55008 11.8364 8.49756 11.655 8.50017C11.5759 8.49225 11.496 8.5009 11.4204 8.52557C11.3448 8.55023 11.2752 8.59037 11.216 8.64343C11.1568 8.69649 11.1093 8.76131 11.0765 8.83375C11.0437 8.90619 11.0263 8.98466 11.0255 9.06417C11.0255 9.45867 11.27 9.61867 11.8345 9.86417L12.1635 10.0052C13.2815 10.4847 13.9135 10.9732 13.9135 12.0717C13.9135 13.2562 12.983 13.9052 11.7335 13.9052C11.2467 13.9359 10.7615 13.8252 10.3361 13.5865C9.91073 13.3478 9.56344 12.9912 9.33605 12.5597L10.404 11.9377ZM5.75655 12.0517C5.96305 12.4182 6.15105 12.7282 6.60305 12.7282C7.03505 12.7282 7.30805 12.5592 7.30805 11.9017V7.42817H8.62355V11.9192C8.62355 13.2812 7.82355 13.9012 6.65905 13.9012C6.24742 13.9237 5.83862 13.8211 5.48639 13.6069C5.13416 13.3927 4.85497 13.077 4.68555 12.7012L5.75655 12.0517Z" fill="black"/>
</svg>
