<svg width="16" height="16" viewBox="0 0 16 16" fill="none" xmlns="http://www.w3.org/2000/svg">
<g clip-path="url(#clip0_185_4957)">
<path d="M1 6.0001H3V7.0001H1V6.0001ZM0 8.0001H3V9.0001H0V8.0001ZM2 10.0001H3V11.0001H2V10.0001ZM10.477 7.5001H7V9.0001H8.6195C8.42648 9.29568 8.16546 9.54071 7.8583 9.71469C7.55113 9.88868 7.20676 9.98654 6.854 10.0001C6.66203 10.0073 6.47079 9.97264 6.29354 9.89856C6.11629 9.82448 5.95727 9.71275 5.8275 9.5711C5.6969 9.41447 5.60131 9.2317 5.54715 9.03508C5.49299 8.83846 5.48152 8.63253 5.5135 8.4311C5.58891 7.91147 5.8431 7.43437 6.23232 7.08192C6.62154 6.72948 7.12145 6.52374 7.646 6.5001C7.96254 6.49307 8.27169 6.59629 8.5205 6.7921L10.0015 6.1996C9.73801 5.82116 9.38513 5.51366 8.97421 5.3044C8.56328 5.09514 8.10704 4.99062 7.646 5.0001C6.75529 5.02534 5.90244 5.36584 5.23926 5.96099C4.57608 6.55613 4.14562 7.36731 4.0245 8.2501C3.95955 8.65595 3.98451 9.07111 4.09763 9.46625C4.21075 9.86139 4.40927 10.2269 4.67915 10.5369C4.94903 10.8468 5.2837 11.0938 5.6595 11.2602C6.03531 11.4267 6.44307 11.5086 6.854 11.5001C7.74471 11.4749 8.59756 11.1344 9.26074 10.5392C9.92392 9.94408 10.3544 9.1329 10.4755 8.2501C10.5054 8.00103 10.5059 7.7493 10.477 7.5001Z" fill="#00ACC1"/>
<path d="M13.146 5.00011C12.2553 5.02534 11.4025 5.36584 10.7393 5.96099C10.0761 6.55614 9.64565 7.36731 9.52453 8.25011C9.45958 8.65595 9.48454 9.07111 9.59766 9.46625C9.71078 9.86139 9.9093 10.2269 10.1792 10.5369C10.4491 10.8469 10.7837 11.0938 11.1595 11.2602C11.5353 11.4267 11.9431 11.5086 12.354 11.5001C13.2447 11.4749 14.0976 11.1344 14.7608 10.5392C15.4239 9.94408 15.8544 9.1329 15.9755 8.25011C16.0405 7.84426 16.0155 7.4291 15.9024 7.03396C15.7893 6.63882 15.5908 6.27334 15.3209 5.96335C15.051 5.65336 14.7163 5.40642 14.3405 5.23998C13.9647 5.07353 13.557 4.99165 13.146 5.00011ZM14.4865 8.06861C14.4112 8.58834 14.1571 9.06555 13.7679 9.4181C13.3786 9.77064 12.8787 9.97645 12.354 10.0001C12.1621 10.0073 11.9708 9.97264 11.7936 9.89856C11.6163 9.82449 11.4573 9.71275 11.3275 9.57111C11.1969 9.41447 11.1013 9.2317 11.0472 9.03508C10.993 8.83846 10.9816 8.63253 11.0135 8.43111C11.0889 7.91147 11.3431 7.43437 11.7324 7.08192C12.1216 6.72948 12.6215 6.52374 13.146 6.50011C13.338 6.49293 13.5292 6.52757 13.7065 6.60165C13.8837 6.67573 14.0428 6.78746 14.1725 6.92911C14.3031 7.08575 14.3987 7.26851 14.4529 7.46513C14.507 7.66175 14.5185 7.86769 14.4865 8.06911V8.06861Z" fill="#00ACC1"/>
</g>
<defs>
<clipPath id="clip0_185_4957">
<rect width="16" height="16" fill="white"/>
</clipPath>
</defs>
</svg>
