<svg width="16" height="16" viewBox="0 0 16 16" fill="none" xmlns="http://www.w3.org/2000/svg">
<g clip-path="url(#clip0_185_4955)">
<path d="M15.9815 4.56012C15.9775 4.54512 15.97 4.53212 15.9645 4.51762C15.9551 4.49066 15.9434 4.46457 15.9295 4.43962C15.9048 4.40372 15.8777 4.36948 15.8485 4.33712C15.8345 4.32429 15.8198 4.31227 15.8045 4.30112C15.7913 4.28905 15.7774 4.2777 15.763 4.26712L15.741 4.25712L15.7235 4.24512L12.7235 2.74512C12.6541 2.71044 12.5776 2.69238 12.5 2.69238C12.4224 2.69238 12.3459 2.71044 12.2765 2.74512L9.2765 4.24512L9.259 4.25712L9.237 4.26712C9.22257 4.2777 9.20872 4.28905 9.1955 4.30112C9.15849 4.32665 9.12674 4.35907 9.102 4.39662C9.09057 4.41037 9.07989 4.42472 9.07 4.43962C9.0563 4.46459 9.04476 4.49068 9.0355 4.51762C9.0305 4.53212 9.0225 4.54512 9.0185 4.56012C9.00643 4.60325 9.0002 4.64782 9 4.69262V7.38362L7 8.38362V2.69262C6.9998 2.64782 6.99357 2.60325 6.9815 2.56012C6.9775 2.54512 6.97 2.53212 6.9645 2.51762C6.95508 2.49066 6.94337 2.46457 6.9295 2.43962C6.91977 2.42473 6.90926 2.41038 6.898 2.39662C6.87326 2.35907 6.84151 2.32665 6.8045 2.30112C6.79129 2.28905 6.77743 2.2777 6.763 2.26712L6.741 2.25712L6.7235 2.24512L3.7235 0.745116C3.6541 0.710437 3.57758 0.692383 3.5 0.692383C3.42242 0.692383 3.3459 0.710437 3.2765 0.745116L0.2765 2.24512L0.259 2.25712L0.237 2.26712C0.222568 2.2777 0.208715 2.28905 0.1955 2.30112C0.180162 2.31227 0.165472 2.32429 0.1515 2.33712C0.133315 2.35562 0.116598 2.37552 0.1015 2.39662C0.0902429 2.41038 0.079728 2.42473 0.07 2.43962C0.0562994 2.46459 0.0447574 2.49068 0.0355 2.51762C0.0305 2.53212 0.0225 2.54512 0.0185 2.56012C0.00642565 2.60325 0.000203295 2.64782 0 2.69262L0 12.1926C4.95743e-05 12.2854 0.0259415 12.3764 0.0747762 12.4554C0.123611 12.5343 0.19346 12.5981 0.2765 12.6396L3.2765 14.1396L6.2765 15.6396C6.2835 15.6431 6.2915 15.6421 6.2995 15.6451C6.36179 15.6761 6.43042 15.6923 6.5 15.6923C6.56958 15.6923 6.63821 15.6761 6.7005 15.6451C6.708 15.6421 6.7165 15.6431 6.7235 15.6401L12.7235 12.6401C12.8066 12.5986 12.8765 12.5347 12.9254 12.4557C12.9742 12.3766 13 12.2855 13 12.1926V9.50162L15.7235 8.13962C15.8065 8.09812 15.8764 8.03433 15.9252 7.95538C15.9741 7.87643 16 7.78545 16 7.69262V4.69262C15.9998 4.64782 15.9936 4.60325 15.9815 4.56012ZM4.618 10.6926L6.7235 9.63962H6.724L9.5 8.25162L11.382 9.19262L6.5 11.6336L4.618 10.6926ZM12 6.50162V8.38362L10 7.38362V5.50162L12 6.50162ZM12.5 3.75162L14.382 4.69262L12.5 5.63362L10.618 4.69262L12.5 3.75162ZM4 9.88362V4.50162L6 3.50162V8.88362L4 9.88362ZM3.5 1.75162L5.382 2.69262L3.5 3.63362L1.618 2.69262L3.5 1.75162ZM1 3.50162L3 4.50162V12.8836L1 11.8836V3.50162ZM4 11.5016L6 12.5016V14.3836L4 13.3836V11.5016ZM12 11.8836L7 14.3836V12.5016L12 10.0016V11.8836ZM15 7.38362L13 8.38362V6.50162L15 5.50162V7.38362Z" fill="#FF5252"/>
</g>
<defs>
<clipPath id="clip0_185_4955">
<rect width="16" height="16" fill="white"/>
</clipPath>
</defs>
</svg>
