<svg width="16" height="16" viewBox="0 0 16 16" fill="none" xmlns="http://www.w3.org/2000/svg">
<g clip-path="url(#clip0_185_4935)">
<path d="M4.74563 0.866534C4.48063 0.875534 4.22813 0.940034 4 1.07153C3.544 1.33478 3.27175 1.81778 3.14937 2.38941C3.02712 2.96116 3.04 3.64103 3.16188 4.40191C3.20888 4.69528 3.27763 5.00378 3.35713 5.31916C3.04425 5.40791 2.74263 5.50291 2.46513 5.60891C1.74513 5.88391 1.15012 6.21266 0.716125 6.60453C0.282125 6.99641 0 7.47328 0 7.99978C0 8.52628 0.282 9.00353 0.716125 9.39528C1.15 9.78728 1.745 10.116 2.465 10.391C2.7425 10.497 3.04413 10.5918 3.357 10.6807C3.2775 10.996 3.20875 11.3045 3.16175 11.5978C3.03988 12.359 3.02725 13.0387 3.1495 13.6103C3.272 14.1822 3.54388 14.665 3.99988 14.9283C4.45588 15.1915 5.00987 15.1858 5.56625 15.0058C6.1225 14.8258 6.705 14.4749 7.30312 13.9888C7.53362 13.8015 7.7665 13.588 8 13.3613C8.23325 13.588 8.46625 13.8015 8.69675 13.9888C9.29475 14.475 9.877 14.8259 10.4334 15.0059C10.9896 15.1859 11.544 15.1915 12 14.9284C12.456 14.665 12.7283 14.1822 12.8506 13.6104C12.9729 13.0387 12.9598 12.3589 12.8379 11.5979C12.7909 11.3045 12.7224 10.996 12.6429 10.6807C12.9557 10.5919 13.2574 10.4969 13.5349 10.391C14.2549 10.1162 14.8499 9.78728 15.2839 9.39541C15.7179 9.00353 16 8.52628 16 7.99978C16 7.47328 15.718 6.99628 15.2839 6.60453C14.8499 6.21278 14.2549 5.88378 13.5349 5.60891C13.2574 5.50303 12.956 5.40791 12.6431 5.31916C12.7226 5.00378 12.7911 4.69516 12.8381 4.40191C12.96 3.64103 12.9726 2.96116 12.8504 2.38941C12.7281 1.81766 12.4561 1.33478 12 1.07153C11.5439 0.808284 10.99 0.814034 10.4336 0.994034C9.87738 1.17403 9.29487 1.52503 8.69675 2.01103C8.46625 2.19853 8.233 2.41203 7.99963 2.63878C7.76625 2.41216 7.53338 2.19841 7.30288 2.01103C6.705 1.52503 6.123 1.17378 5.56675 0.993784C5.2885 0.903784 5.01075 0.857534 4.7455 0.866284L4.74563 0.866534ZM4.77763 1.55966C4.94388 1.55491 5.13437 1.58553 5.35262 1.65591C5.78887 1.79716 6.312 2.10216 6.86425 2.55091C7.077 2.72366 7.29463 2.92366 7.51388 3.13716C7.05588 3.63216 6.60163 4.19503 6.16213 4.81641C5.40425 4.88641 4.68963 4.99841 4.03175 5.14766C3.95675 4.85091 3.89225 4.56266 3.84888 4.29178C3.73638 3.58928 3.73387 2.98366 3.82987 2.53516C3.92575 2.08678 4.10513 1.81428 4.34788 1.67416C4.46925 1.60416 4.61138 1.56416 4.77763 1.55966ZM11.2225 1.55966C11.3887 1.56428 11.5309 1.60403 11.6523 1.67416C11.895 1.81416 12.0744 2.08666 12.1702 2.53503C12.2661 2.98341 12.264 3.58916 12.1515 4.29178C12.1081 4.56241 12.0438 4.85103 11.9686 5.14753C11.3109 4.99841 10.5961 4.88628 9.838 4.81641C9.3985 4.19516 8.944 3.63216 8.486 3.13703C8.70525 2.92366 8.92312 2.72353 9.13587 2.55078C9.68812 2.10178 10.2112 1.79728 10.6476 1.65603C10.8657 1.58553 11.0564 1.55503 11.2226 1.55978L11.2225 1.55966ZM8 3.63753C8.32727 3.99471 8.63761 4.36704 8.93 4.75328C8.6245 4.73953 8.31538 4.73028 8 4.73028C7.68475 4.73028 7.37563 4.73941 7.07 4.75328C7.36225 4.36692 7.6726 3.99459 8 3.63753ZM8 5.42603C8.49812 5.42603 8.98375 5.44566 9.45425 5.48103C9.72787 5.88173 9.98635 6.29256 10.2291 6.71266C10.4716 7.13304 10.6982 7.56239 10.9084 7.99978C10.6982 8.4371 10.4716 8.86636 10.2291 9.28666C9.98631 9.70689 9.7278 10.1178 9.45413 10.5187C8.98375 10.554 8.49812 10.5738 8.00012 10.5738C7.51469 10.5737 7.02943 10.5553 6.54537 10.5188C6.27183 10.1179 6.01344 9.70692 5.77075 9.28666C5.5283 8.86644 5.30173 8.43726 5.0915 8.00003C5.3018 7.56263 5.52846 7.13329 5.771 6.71291C6.01381 6.29272 6.27233 5.88181 6.546 5.48103C7.02985 5.4445 7.51477 5.42615 8 5.42603ZM5.65338 5.57141C5.48573 5.83229 5.32402 6.09694 5.16838 6.36516C5.01388 6.63401 4.86551 6.90633 4.72337 7.18191C4.535 6.73558 4.36765 6.28066 4.22188 5.81866C4.67063 5.71866 5.14838 5.63491 5.65338 5.57141ZM10.3468 5.57141C10.8275 5.63141 11.3052 5.71391 11.7782 5.81866C11.6325 6.28075 11.4651 6.73575 11.2767 7.18216C11.1346 6.90645 10.9862 6.63401 10.8317 6.36503C10.6761 6.09682 10.5144 5.83216 10.3468 5.57128V5.57141ZM3.54562 5.98903C3.74537 6.63328 4.00575 7.30828 4.32438 7.99953C4.00563 8.69103 3.74562 9.36628 3.54562 10.0105C3.25125 9.92741 2.96937 9.83878 2.71312 9.74103C2.04825 9.48728 1.52262 9.18628 1.18212 8.87878C0.84175 8.57153 0.6955 8.28003 0.6955 7.99966C0.6955 7.71941 0.84175 7.42816 1.18212 7.12091C1.52262 6.81341 2.04838 6.51253 2.71312 6.25878C2.96937 6.16091 3.25125 6.07216 3.54562 5.98891V5.98903ZM12.4544 5.98903C12.7489 6.07228 13.0309 6.16103 13.2869 6.25903C13.9519 6.51278 14.4775 6.81353 14.818 7.12091C15.1584 7.42841 15.3046 7.71966 15.3046 7.99978C15.3046 8.28016 15.1584 8.57166 14.818 8.87891C14.4775 9.18641 13.9517 9.48716 13.287 9.74103C13.0307 9.83878 12.7486 9.92728 12.4543 10.0105C12.2545 9.36641 11.9942 8.69141 11.6759 8.00003C11.9945 7.30853 12.2545 6.63341 12.4544 5.98903ZM8 6.57378C7.62182 6.57385 7.25915 6.72411 6.99174 6.99152C6.72433 7.25894 6.57407 7.62161 6.574 7.99978C6.57407 8.37798 6.72434 8.74067 6.99178 9.00809C7.25922 9.27551 7.62192 9.42575 8.00012 9.42578C8.3783 9.42572 8.74097 9.27546 9.00839 9.00805C9.2758 8.74063 9.42606 8.37796 9.42612 7.99978C9.42606 7.62158 9.27578 7.2589 9.00834 6.99148C8.7409 6.72406 8.3782 6.57382 8 6.57378ZM11.2767 8.81766C11.4651 9.26407 11.6323 9.71907 11.778 10.1812C11.3295 10.2812 10.8518 10.365 10.347 10.4287C10.5145 10.1677 10.6761 9.90288 10.8316 9.63453C10.9861 9.36564 11.1346 9.09328 11.2767 8.81766ZM4.72337 8.81791C4.86551 9.09345 5.01389 9.36573 5.16838 9.63453C5.32409 9.90279 5.48579 10.1675 5.65338 10.4285C5.17258 10.3687 4.69488 10.2861 4.22188 10.1812C4.36765 9.71915 4.535 9.26424 4.72337 8.81791ZM4.0315 10.8523C4.68925 11.0013 5.404 11.1132 6.16213 11.183C6.60163 11.8047 7.05612 12.3677 7.51412 12.863C7.29487 13.0762 7.07725 13.2762 6.8645 13.4493C6.31225 13.898 5.78863 14.203 5.35225 14.3443C4.916 14.4853 4.59037 14.4659 4.34762 14.3258C4.10487 14.1855 3.92575 13.9133 3.82987 13.4649C3.73387 13.0164 3.73625 12.4108 3.84888 11.7079C3.89225 11.4373 3.95637 11.1488 4.0315 10.8523ZM11.9684 10.8523C12.0434 11.1488 12.1079 11.4373 12.1512 11.7079C12.2637 12.4108 12.2662 13.0164 12.1702 13.4649C12.0744 13.9134 11.895 14.1858 11.6523 14.3262C11.4095 14.4662 11.084 14.4853 10.6476 14.344C10.2112 14.2028 9.68812 13.8978 9.13587 13.449C8.92325 13.2762 8.70537 13.0762 8.48625 12.8628C8.94425 12.3678 9.3985 11.8045 9.838 11.183C10.5959 11.1132 11.3105 11.0013 11.9684 10.8523ZM7.07 11.2463C7.37983 11.2611 7.68995 11.2688 8.00012 11.2695C8.31034 11.2688 8.62051 11.2611 8.93038 11.2463C8.63806 11.6328 8.32763 12.0053 8.00012 12.3625C7.67271 12.0053 7.36224 11.6328 7.07 11.2463Z" fill="#61DAFB"/>
</g>
<defs>
<clipPath id="clip0_185_4935">
<rect width="16" height="16" fill="white"/>
</clipPath>
</defs>
</svg>
